<?xml version="1.0" standalone="no"?>
<!DOCTYPE svg PUBLIC "-//W3C//DTD SVG 20010904//EN"
 "http://www.w3.org/TR/2001/REC-SVG-20010904/DTD/svg10.dtd">
<svg version="1.0" xmlns="http://www.w3.org/2000/svg"
 width="225.000000pt" height="225.000000pt" viewBox="0 0 225.000000 225.000000"
 preserveAspectRatio="xMidYMid meet">

<g transform="translate(0.000000,225.000000) scale(0.100000,-0.100000)"
fill="#000000" stroke="none">
<path d="M1043 1683 c-10 -4 -13 -118 -12 -531 1 -293 5 -505 9 -477 5 28 9
85 9 128 1 74 6 88 27 67 6 -6 9 144 9 405 0 439 1 426 -42 408z"/>
<path d="M1108 1125 l-3 -565 41 0 41 0 2 565 2 565 -40 0 -41 0 -2 -565z"/>
<path d="M988 1672 c-17 -3 -18 -29 -18 -373 0 -264 3 -369 11 -369 8 0 10
-43 8 -144 -2 -79 -1 -147 2 -151 10 -9 21 540 17 810 -3 213 -4 230 -20 227z"/>
<path d="M928 1653 c-17 -4 -18 -30 -18 -359 0 -229 4 -354 10 -354 6 0 10
-53 10 -140 0 -87 4 -140 10 -140 7 0 10 173 10 500 0 275 -1 499 -2 499 -2
-1 -11 -3 -20 -6z"/>
<path d="M872 1354 c-2 -327 7 -674 20 -674 4 0 8 59 8 130 0 79 -4 130 -10
130 -6 0 -11 127 -13 348 l-2 347 -3 -281z"/>
<path d="M820 1161 c0 -301 3 -442 11 -446 6 -4 12 -5 14 -4 7 8 -9 889 -17
889 -4 0 -8 -198 -8 -439z"/>
<path d="M778 1565 c-3 -6 -7 -187 -9 -403 -4 -353 -2 -394 12 -402 15 -9 16
25 12 393 -3 221 -6 406 -7 412 -1 6 -4 6 -8 0z"/>
<path d="M728 1508 c-2 -7 -4 -150 -3 -318 1 -188 -3 -316 -9 -332 -8 -23 -7
-31 7 -45 16 -16 17 3 17 345 0 199 -2 362 -4 362 -2 0 -6 -6 -8 -12z"/>
<path d="M676 1454 c-11 -28 -7 -582 4 -589 7 -4 10 98 10 299 0 168 -2 306
-4 306 -2 0 -7 -7 -10 -16z"/>
<path d="M1390 1055 c0 -206 4 -375 8 -375 30 0 32 29 32 387 0 356 0 363 -20
363 -20 0 -20 -7 -20 -375z"/>
<path d="M1350 1039 c0 -300 3 -380 13 -377 9 4 13 91 15 381 2 331 0 377 -13
377 -13 0 -15 -48 -15 -381z"/>
<path d="M1450 1069 c0 -276 3 -350 13 -347 9 4 13 85 15 351 2 304 0 347 -13
347 -13 0 -15 -44 -15 -351z"/>
<path d="M1500 1083 c0 -325 0 -326 20 -308 19 17 20 31 20 315 0 290 -3 320
-32 320 -4 0 -8 -147 -8 -327z"/>
<path d="M1315 1020 c0 -212 1 -298 2 -193 2 106 2 280 0 385 -1 106 -2 20 -2
-192z"/>
<path d="M634 1160 c0 -129 2 -182 3 -117 2 64 2 170 0 235 -1 64 -3 11 -3
-118z"/>
<path d="M1275 1005 c0 -209 1 -296 2 -193 2 103 2 274 0 380 -1 106 -2 22 -2
-187z"/>
<path d="M1550 1094 c0 -289 0 -289 20 -264 18 23 20 42 20 271 0 233 -1 247
-20 264 -20 18 -20 17 -20 -271z"/>
<path d="M1237 1353 c-12 -11 -8 -733 3 -733 6 0 10 130 10 370 0 204 -1 370
-3 370 -2 0 -7 -3 -10 -7z"/>
<path d="M1612 1110 l-1 -215 19 42 c48 108 51 242 7 335 l-25 53 0 -215z"/>
<path d="M586 1253 c-8 -50 -6 -160 4 -198 5 -19 8 20 9 103 0 72 -1 132 -3
132 -2 0 -6 -17 -10 -37z"/>
</g>
</svg>
